<svg id="Isolation_Mode" data-name="Isolation Mode" xmlns="http://www.w3.org/2000/svg" viewBox="0 0 230.3 61.69"><defs><style>.cls-1{fill:#8c8e8d}.cls-2{fill:#e32827}</style></defs><title>logo_onem</title><g id="g3399"><path id="path3337" class="cls-1" d="M97.37 62.63q-13.13 0-21.57 8.7T67.35 93.4q0 13.45 8.45 22.15t21.57 8.7q13.21 0 21.58-8.61t8.45-22.24q0-13.45-8.45-22.07t-21.58-8.7zm-4.82 10.18h9.64V78c6.18 2.23 10.35 8.46 10.36 15.48s-4.18 13.24-10.36 15.47v5.15h-9.64v-5.15c-6.18-2.23-10.35-8.46-10.36-15.48S86.37 80.19 92.55 78z" transform="translate(-67.35 -62.63)"/><path id="path3339" class="cls-1" d="M132.39 123.82V64.67h20.11c5.81 9.8 11.7 19.56 17.41 29.43V64.67h18.84v59.15h-19.52c-6-10.08-12.37-20-18-30.23.24 10.07.12 20.15.12 30.23z" transform="translate(-67.35 -62.63)"/><path id="path3341" class="cls-1" d="M193.87 64.67v59.15h38.78v-14.19H210.9v-7.71h21.89v-14.2H210.9v-8.85h22.35v-14.2z" transform="translate(-67.35 -62.63)"/><path id="path3343" class="cls-2" d="M238 124.32v-37h15.32V92a13.47 13.47 0 0 1 11.51-5.72q6.52 0 9.31 5.13a17.08 17.08 0 0 1 12.09-5.2 12.28 12.28 0 0 1 8.06 2.71 8.32 8.32 0 0 1 3.3 6.67l.07 5.35v23.38h-15.84V105.2l-.07-2.27a2.87 2.87 0 0 0-.81-2.13 2.44 2.44 0 0 0-2-.88 3.55 3.55 0 0 0-2.79 1.91 5.38 5.38 0 0 0-.37 1.47q-.07.66-.07 3v18h-15.8v-19.62l-.07-2.13a3.13 3.13 0 0 0-1-2.05 2.58 2.58 0 0 0-1.91-.73 2.73 2.73 0 0 0-2.64 1.76 5.36 5.36 0 0 0-.37 1.39q-.07.59-.07 2.42v19z" transform="translate(-67.35 -62.63)"/><path id="text3371" class="cls-1" d="M291.6 63a6 6 0 1 0 6 6 6 6 0 0 0-6-6zm0 1a5 5 0 1 1-5 5 5 5 0 0 1 5-5zm-2 1.76v6.52h1v-2.47h1.31l1.42 2.51h1.05l-1.51-2.77A2 2 0 0 0 294 67.7a1.71 1.71 0 0 0-.59-1.46 2.73 2.73 0 0 0-1.66-.44zm1 .81h1.09q1.31 0 1.31 1.12a1.1 1.1 0 0 1-.32.87 1.25 1.25 0 0 1-.86.28h-1.22z" transform="translate(-67.35 -62.63)"/></g></svg>